# xmcd CD database file
#
# Track frame offsets:
#	182
#	14377
#	25572
#	40527
#	53837
#	66517
#	79580
#	92822
#	105435
#	117762
#	130085
#	144475
#	156675
#	169362
#	180127
#	193825
#	205990
#	219507
#	232500
#	245730
#	259317
#	271420
#	283850
#	296660
#
# Disc length: 4128 seconds
#
# Revision: 0
# Processed by: cddbd v1.5.1PL2 Copyright (c) Steve Scherf et al.
# Submitted via: CDex 1.51
#
DISCID=5b101e18
DTITLE=Duke Ellington and His Orchestra - 1939 Vol 2
DYEAR=1994
DGENRE=Jazz
TTITLE0=In a Mizz
TTITLE1=I'm Checkin' Out, Goo'm Bye
TTITLE2=A Lonely Co-Ed
TTITLE3=You Can Count On Me
TTITLE4=Night Song
TTITLE5=Blues A-Poppin'
TTITLE6=Top and Bottom
TTITLE7=Black Beauty
TTITLE8=Bouncing Buoyancy
TTITLE9=The Sergeant Was Shy
TTITLE10=Grievin'
TTITLE11=The Rabbit's Jump
TTITLE12=Moon Romance
TTITLE13=Truly Wonderful
TTITLE14=Dream Blues
TTITLE15=Little Posey
TTITLE16=I Never Felt This Way Before
TTITLE17=Grievin'
TTITLE18=Tootin' Through the Roof
TTITLE19=Weely (A Portrait of Billy Strayhorn)
TTITLE20=Skunk Hollow Blues
TTITLE21=I Know What You Do
TTITLE22=Your Love Has Faded
TTITLE23=Tired Socks
EXTD=YEAR: 1994
EXTT0=
EXTT1=
EXTT2=
EXTT3=
EXTT4=
EXTT5=
EXTT6=
EXTT7=
EXTT8=
EXTT9=
EXTT10=
EXTT11=
EXTT12=
EXTT13=
EXTT14=
EXTT15=
EXTT16=
EXTT17=
EXTT18=
EXTT19=
EXTT20=
EXTT21=
EXTT22=
EXTT23=
PLAYORDER=
